<svg xmlns="http://www.w3.org/2000/svg" version="1.1" xmlns:xlink="http://www.w3.org/1999/xlink" xmlns:svgjs="http://svgjs.dev/svgjs" width="1000" height="199" viewBox="0 0 1000 199"><g transform="matrix(1,0,0,1,-0.6060606060606233,-0.0831373734236962)"><svg viewBox="0 0 396 79" data-background-color="#ffffff" preserveAspectRatio="xMidYMid meet" height="199" width="1000" xmlns="http://www.w3.org/2000/svg" xmlns:xlink="http://www.w3.org/1999/xlink"><defs></defs><g id="tight-bounds" transform="matrix(1,0,0,1,0.2400000000000091,0.033004283921968636)"><svg viewBox="0 0 395.52 78.93399143215605" height="78.93399143215605" width="395.52"><g><svg viewBox="0 0 507.1279692635011 101.20761220886907" height="78.93399143215605" width="395.52"><g transform="matrix(1,0,0,1,111.60796926350113,28.576244949060698)"><svg viewBox="0 0 395.52 44.05512231074767" height="44.05512231074767" width="395.52"><g><svg viewBox="0 0 395.52 44.05512231074767" height="44.05512231074767" width="395.52"><g><svg viewBox="0 0 395.52 44.05512231074767" height="44.05512231074767" width="395.52"><g transform="matrix(1,0,0,1,0,0)"><svg width="395.52" viewBox="3.74 -35.01 318.26 35.449999999999996" height="44.05512231074767" data-palette-color="#de7e5d"><path d="M22.39-17.5L40.38 0 31.37 0 17.09-14.31 12.62-14.31 12.62-20.7 17.09-20.7 31.37-35.01 40.38-35.01 22.39-17.5ZM10.08-35.01L10.08 0 3.74 0 3.74-35.01 10.08-35.01ZM50.75-35.01L50.75 0 44.41 0 44.41-35.01 50.75-35.01ZM93.11-20.36L93.11-14.65Q93.11-11.45 92-8.76 90.89-6.08 88.94-4.14 86.98-2.2 84.3-1.1 81.61 0 78.46 0L78.46 0 61.32 0Q60.64 0 60.05-0.24 59.47-0.49 59.04-0.92 58.61-1.34 58.37-1.93 58.12-2.51 58.12-3.2L58.12-3.2 58.12-31.81Q58.12-32.47 58.37-33.06 58.61-33.64 59.04-34.08 59.47-34.52 60.05-34.77 60.64-35.01 61.32-35.01L61.32-35.01 78.46-35.01Q81.61-35.01 84.3-33.91 86.98-32.81 88.94-30.87 90.89-28.93 92-26.23 93.11-23.54 93.11-20.36L93.11-20.36ZM86.76-14.65L86.76-20.36Q86.76-22.22 86.16-23.75 85.57-25.29 84.47-26.38 83.37-27.47 81.84-28.06 80.32-28.66 78.46-28.66L78.46-28.66 64.47-28.66 64.47-6.35 78.46-6.35Q80.32-6.35 81.84-6.95 83.37-7.54 84.47-8.63 85.57-9.72 86.16-11.24 86.76-12.77 86.76-14.65L86.76-14.65ZM132.98-10.3L132.98-10.3Q132.98-8.42 132.5-6.92 132.02-5.42 131.24-4.27 130.46-3.13 129.41-2.32 128.36-1.51 127.24-1 126.12-0.49 124.96-0.24 123.8 0 122.77 0L122.77 0 98.28 0 98.28-6.35 122.77-6.35Q124.6-6.35 125.62-7.42 126.63-8.5 126.63-10.3L126.63-10.3Q126.63-11.18 126.36-11.91 126.09-12.65 125.59-13.18 125.09-13.72 124.37-14.01 123.65-14.31 122.77-14.31L122.77-14.31 108.17-14.31Q106.63-14.31 104.85-14.86 103.07-15.41 101.54-16.63 100.02-17.85 99-19.82 97.99-21.8 97.99-24.66L97.99-24.66Q97.99-27.51 99-29.48 100.02-31.45 101.54-32.68 103.07-33.91 104.85-34.46 106.63-35.01 108.17-35.01L108.17-35.01 129.78-35.01 129.78-28.66 108.17-28.66Q106.36-28.66 105.35-27.56 104.34-26.46 104.34-24.66L104.34-24.66Q104.34-22.83 105.35-21.77 106.36-20.7 108.17-20.7L108.17-20.7 122.77-20.7 122.82-20.7Q123.85-20.68 124.99-20.42 126.14-20.17 127.28-19.63 128.41-19.09 129.44-18.27 130.46-17.46 131.25-16.31 132.05-15.16 132.51-13.67 132.98-12.18 132.98-10.3ZM192.52-35.01L198.96-35.01 193.1-2.2Q192.91-1.22 192.22-0.51 191.54 0.2 190.56 0.39L190.56 0.39Q189.56 0.56 188.67 0.17 187.78-0.22 187.27-1.05L187.27-1.05 175.65-20.14 164-1.05Q163.59-0.34 162.87 0.05 162.15 0.44 161.32 0.44L161.32 0.44Q160.17 0.44 159.29-0.29 158.41-1.03 158.22-2.2L158.22-2.2 152.31-35.01 158.75-35.01 162.95-11.89 172.96-27.86Q173.38-28.56 174.1-28.96 174.82-29.35 175.65-29.35L175.65-29.35Q176.48-29.35 177.18-28.96 177.89-28.56 178.36-27.86L178.36-27.86 188.32-11.89 192.52-35.01ZM238.34-31.81L238.34 0 231.99 0 231.99-8.59 209.68-8.59 209.68 0 203.33 0 203.33-17.5Q203.33-21.34 204.65-24.56 205.97-27.78 208.31-30.1 210.65-32.42 213.85-33.72 217.05-35.01 220.83-35.01L220.83-35.01 235.14-35.01Q235.8-35.01 236.39-34.77 236.97-34.52 237.41-34.08 237.85-33.64 238.1-33.06 238.34-32.47 238.34-31.81L238.34-31.81ZM209.68-17.5L209.68-14.94 231.99-14.94 231.99-28.66 220.83-28.66Q220.54-28.66 219.6-28.58 218.66-28.49 217.43-28.15 216.2-27.81 214.83-27.1 213.46-26.39 212.31-25.15 211.17-23.9 210.42-22.03 209.68-20.17 209.68-17.5L209.68-17.5ZM280.7-27.29L280.7-23.24Q280.7-21.07 280.16-19.36 279.62-17.65 278.71-16.35 277.79-15.04 276.59-14.11 275.4-13.18 274.09-12.59 272.79-11.99 271.45-11.72 270.12-11.45 268.95-11.45L268.95-11.45 282.21 0 272.39 0 259.16-11.45 254.6-11.45 254.6-17.8 268.95-17.8Q270.15-17.9 271.14-18.3 272.13-18.7 272.85-19.38 273.57-20.07 273.96-21.03 274.35-22 274.35-23.24L274.35-23.24 274.35-27.25Q274.35-27.78 274.21-28.06 274.08-28.34 273.87-28.48 273.66-28.61 273.43-28.64 273.2-28.66 273-28.66L273-28.66 252.06-28.66 252.06 0 245.71 0 245.71-31.81Q245.71-32.47 245.95-33.06 246.2-33.64 246.63-34.08 247.05-34.52 247.64-34.77 248.22-35.01 248.91-35.01L248.91-35.01 273-35.01Q275.13-35.01 276.59-34.24 278.06-33.47 278.97-32.31 279.89-31.15 280.29-29.81 280.7-28.47 280.7-27.29L280.7-27.29ZM322-20.36L322-14.65Q322-11.45 320.89-8.76 319.78-6.08 317.83-4.14 315.87-2.2 313.19-1.1 310.5 0 307.35 0L307.35 0 290.21 0Q289.53 0 288.94-0.24 288.36-0.49 287.93-0.92 287.5-1.34 287.26-1.93 287.02-2.51 287.02-3.2L287.02-3.2 287.02-31.81Q287.02-32.47 287.26-33.06 287.5-33.64 287.93-34.08 288.36-34.52 288.94-34.77 289.53-35.01 290.21-35.01L290.21-35.01 307.35-35.01Q310.5-35.01 313.19-33.91 315.87-32.81 317.83-30.87 319.78-28.93 320.89-26.23 322-23.54 322-20.36L322-20.36ZM315.65-14.65L315.65-20.36Q315.65-22.22 315.06-23.75 314.46-25.29 313.36-26.38 312.26-27.47 310.73-28.06 309.21-28.66 307.35-28.66L307.35-28.66 293.36-28.66 293.36-6.35 307.35-6.35Q309.21-6.35 310.73-6.95 312.26-7.54 313.36-8.63 314.46-9.72 315.06-11.24 315.65-12.77 315.65-14.65L315.65-14.65Z" opacity="1" transform="matrix(1,0,0,1,0,0)" fill="#de7e5d" class="undefined-text-0" data-fill-palette-color="primary" id="text-0"></path></svg></g></svg></g></svg></g></svg></g><g><svg viewBox="0 0 101.20761220886907 101.20761220886907" height="101.20761220886907" width="101.20761220886907"><g><svg></svg></g><g id="icon-0"><svg viewBox="0 0 101.20761220886907 101.20761220886907" height="101.20761220886907" width="101.20761220886907"><g><rect width="92.02395850843465" height="92.02395850843465" x="4.59182685021721" y="4.59182685021721" fill="#0074d9" data-fill-palette-color="accent"></rect><rect width="92.02395850843465" height="92.02395850843465" x="9.183653700434416" y="2.6645352591003757e-15" fill="#0074d9" opacity="0.5" data-fill-palette-color="accent"></rect></g><g transform="matrix(1,0,0,1,23.212674559019163,13.119505286334878)"><svg viewBox="0 0 54.78226309083074 74.96860163619931" height="74.96860163619931" width="54.78226309083074"><g><svg xmlns="http://www.w3.org/2000/svg" xmlns:xlink="http://www.w3.org/1999/xlink" version="1.1" x="0" y="0" viewBox="17.252032114462494 4.958307849843507 65.6525811342582 89.8444482529285" enable-background="new 0 0 100 100" xml:space="preserve" height="74.96860163619931" width="54.78226309083074" class="icon-li-0" data-fill-palette-color="background" id="li-0"><path d="M81.2 49.5c-1.6-1-3.9-0.5-6.4 1.2C70.5 41.3 61 35.1 50.6 35c0.7-3.8-1.3-7.1-5.4-7.8 0 0 0-0.1 0-0.1 0.8-3.5-1.5-5.6-4.4-6.8 0.9-3.1 0.5-6.6-3-7.8-0.5-0.2-1-0.3-1.5-0.4C37.8 8.7 35.6 5.8 32 5c-1.7-0.4-2.4 2.2-0.7 2.6 2.3 0.5 3.5 1.6 2.5 3.9-0.1 0.1-0.2 0.3-0.3 0.6-2.1 0.3-4 1.3-4.8 3.3-0.2 0.5 0.1 1.3 0.6 1.5 2.2 1 4.3-0.6 5.7-2.4 1.6 0.2 3.2 1 3.6 2.1 0.3 1 0.2 2-0.1 2.9-0.6-0.1-1.2-0.2-1.7-0.3-2.6-0.2-8.3 3-7.1 6.3 1.5 4.5 8.4-0.3 9.9-2.5 0.1-0.2 0.3-0.4 0.4-0.6 2.4 0.8 3 2.5 2.5 4.3-4.1 0-8.6 1.5-10.1 5.4-1.7 4.4 2 7.1 5.7 4.7 2.4-1.6 4.9-4.4 6.3-7.3 2.8 0.4 4.3 2.3 3.5 5.4-0.6 0.1-1.3 0.1-1.9 0.2-12.8 2.1-22 13-22.5 25.5-2.2-0.3-4.1 0.1-5.2 1.4-2.7 3.1 0 9.9 6 15.2 1.3 1.1 2.6 2.1 3.9 2.9 4.7 9.4 13.1 16.5 27.7 14.3 16.8-2.5 21.8-15.3 21.9-27.9 0.4-0.6 0.8-1.2 1.2-1.8C83.1 58.3 84.2 51.4 81.2 49.5zM36.4 22.7c-0.9 0.9-2 1.5-3.2 1.8-0.3 0.1-0.6 0.1-0.9 0.2 0.9-2 2.8-2.6 4.7-2.6C36.7 22.3 36.5 22.5 36.4 22.7zM41 30c-1.3 2-3.3 4.6-5.6 5.5-1 0.4-0.8-1.3-0.7-1.8 0.2-1.1 0.8-2 1.8-2.6 1.3-0.8 3.1-1.1 4.7-1.3C41 29.8 41 29.9 41 30zM57.8 79.8c-1 1.2-2.4 1.9-4 1.9-0.3 0-0.6 0-0.9-0.1-2.5-0.4-4.5-2.3-5.6-5.2-0.3-0.8 0.1-1.6 0.9-1.9 0.8-0.3 1.6 0.1 1.9 0.9 0.7 1.9 1.9 3.1 3.3 3.3 0.9 0.1 1.7-0.1 2.1-0.7 0.6-0.8 0.6-1.9 0.1-3.3-0.3-0.7 0-1.6 0.8-1.9 0.7-0.3 1.6 0 1.9 0.8C59.2 75.9 59.1 78.2 57.8 79.8z" fill="#ffffff" data-fill-palette-color="background"></path></svg></g></svg></g></svg></g></svg></g></svg></g></svg><rect width="395.52" height="78.93399143215605" fill="none" stroke="none" visibility="hidden"></rect></g></svg></g></svg>