<svg version="1.2" xmlns="http://www.w3.org/2000/svg" viewBox="0 0 190 190" width="190" height="190">
	<title>logo-no-background-svg</title>
	<style>
		.s0 { fill: #de7e5d } 
		.s1 { fill: #0074d9 } 
		.s2 { opacity: .5;fill: #0074d9 } 
		.s3 { fill: #ffffff } 
	</style>
	<g id="Layer">
		<g id="Layer">
			<g id="tight-bounds">
				<g id="Layer">
					<g id="Layer">
						<g id="Layer">
							<g id="Layer">
								<g id="Layer">
									<g id="Layer">
										<g id="Layer">
											<g id="Layer">
												<g id="Layer">
													<g id="Layer">
														<g id="Layer">
															<path id="text-0" fill-rule="evenodd" class="s0" d="m257.5 98.9l44 42.7h-22.1l-34.9-34.9h-11v-15.6h11l34.9-35h22.1zm-30.1-42.7v85.5h-15.6v-85.5zm99.6 0v85.5h-15.5v-85.5zm103.7 35.8v13.9q0 7.8-2.8 14.4-2.7 6.5-7.5 11.3-4.8 4.7-11.3 7.4-6.6 2.7-14.3 2.7h-42q-1.6 0-3.1-0.6-1.4-0.6-2.4-1.7-1.1-1-1.7-2.4-0.6-1.5-0.6-3.1v-69.9q0-1.6 0.6-3 0.6-1.5 1.7-2.5 1-1.1 2.4-1.7 1.5-0.6 3.1-0.6h42q7.7 0 14.3 2.7 6.5 2.7 11.3 7.4 4.8 4.7 7.5 11.3 2.8 6.6 2.8 14.4zm-15.6 13.9v-13.9q0-4.6-1.5-8.3-1.4-3.8-4.1-6.4-2.7-2.7-6.4-4.1-3.8-1.5-8.3-1.5h-34.2v54.5h34.2q4.5 0 8.3-1.5 3.7-1.4 6.4-4.1 2.7-2.7 4.1-6.4 1.5-3.7 1.5-8.3zm113.1 10.6q0 4.6-1.1 8.3-1.2 3.6-3.1 6.4-1.9 2.8-4.5 4.8-2.6 2-5.3 3.2-2.8 1.3-5.6 1.9-2.8 0.6-5.4 0.6h-59.9v-15.5h59.9q4.5 0 7-2.6 2.5-2.7 2.5-7.1 0-2.1-0.7-3.9-0.6-1.8-1.9-3.1-1.2-1.3-2.9-2-1.8-0.8-4-0.8h-35.7q-3.8 0-8.1-1.3-4.4-1.4-8.1-4.3-3.7-3-6.2-7.8-2.5-4.9-2.5-11.8 0-7 2.5-11.8 2.5-4.8 6.2-7.8 3.7-3 8.1-4.4 4.3-1.3 8.1-1.3h52.9v15.5h-52.9q-4.4 0-6.9 2.7-2.5 2.7-2.5 7.1 0 4.4 2.5 7 2.5 2.6 6.9 2.6h35.9q2.5 0.1 5.3 0.7 2.8 0.6 5.6 1.9 2.8 1.4 5.3 3.4 2.5 1.9 4.4 4.7 2 2.9 3.1 6.5 1.1 3.6 1.1 8.2zm145.8-60.3h15.7l-14.3 80.1q-0.5 2.4-2.2 4.1-1.6 1.8-4 2.2-2.5 0.4-4.7-0.5-2.1-1-3.4-3l-28.4-46.6-28.5 46.6q-1 1.7-2.8 2.7-1.8 0.9-3.8 0.9-2.8 0-5-1.7-2.1-1.8-2.6-4.7l-14.5-80.1h15.8l10.3 56.4 24.5-39q1-1.7 2.8-2.6 1.7-1 3.8-1 2 0 3.7 1 1.8 0.9 2.9 2.6l24.4 39zm112.1 7.9v77.6h-15.5v-21h-54.6v21h-15.6v-42.7q0-9.4 3.3-17.2 3.2-7.9 8.9-13.6 5.8-5.6 13.6-8.8 7.8-3.2 17.1-3.2h35q1.6 0 3.1 0.6 1.4 0.6 2.5 1.7 1 1.1 1.7 2.5 0.5 1.4 0.5 3.1zm-70.1 34.9v6.2h54.6v-33.5h-27.3q-0.7 0-3 0.2-2.3 0.3-5.3 1.1-3.1 0.8-6.4 2.6-3.4 1.7-6.2 4.7-2.8 3.1-4.6 7.6-1.8 4.6-1.8 11.1zm173.8-23.9v9.9q0 5.3-1.3 9.4-1.3 4.2-3.6 7.4-2.2 3.2-5.1 5.5-3 2.2-6.2 3.7-3.1 1.4-6.4 2.1-3.3 0.7-6.1 0.7l32.4 27.9h-24l-32.4-27.9h-11.2v-15.5h35.2q2.9-0.3 5.3-1.3 2.4-0.9 4.2-2.6 1.8-1.7 2.7-4 1-2.4 1-5.4v-9.8q0-1.3-0.4-2-0.3-0.7-0.8-1-0.5-0.3-1.1-0.4-0.5-0.1-1-0.1h-51.3v70h-15.5v-77.6q0-1.7 0.6-3.1 0.6-1.4 1.6-2.5 1.1-1.1 2.5-1.7 1.4-0.6 3.1-0.6h59q5.2 0 8.8 1.9 3.6 1.9 5.8 4.7 2.2 2.9 3.2 6.1 1 3.3 1 6.2zm101.1 16.9v13.9q0 7.9-2.7 14.4-2.7 6.6-7.5 11.3-4.8 4.7-11.4 7.4-6.5 2.7-14.3 2.7h-41.9q-1.7 0-3.1-0.6-1.4-0.6-2.5-1.6-1-1.1-1.6-2.5-0.6-1.4-0.6-3.1v-69.8q0-1.7 0.6-3.1 0.6-1.4 1.6-2.5 1.1-1.1 2.5-1.7 1.4-0.6 3.1-0.6h41.9q7.8 0 14.3 2.7 6.6 2.7 11.4 7.4 4.8 4.8 7.5 11.4 2.7 6.5 2.7 14.3zm-15.5 13.9v-13.9q0-4.5-1.5-8.3-1.5-3.7-4.1-6.4-2.7-2.7-6.5-4.1-3.7-1.5-8.3-1.5h-34.2v54.5h34.2q4.6 0 8.3-1.5 3.8-1.4 6.5-4.1 2.6-2.6 4.1-6.3 1.5-3.8 1.5-8.4z"/>
														</g>
													</g>
												</g>
											</g>
										</g>
									</g>
								</g>
							</g>
							<g id="Layer">
								<g id="Layer">
									<g id="Layer">
										<g id="Layer">
										</g>
									</g>
									<g id="icon-0">
										<g id="Layer">
											<g id="Layer">
												<path id="Layer" class="s1" d="m1 9h181.3v180.8h-181.3z"/>
												<path id="Layer" class="s2" d="m10.1 0h181.2v180.8h-181.2z"/>
											</g>
											<g id="Layer">
												<g id="Layer">
													<g id="Layer">
														<g id="li-0">
															<path id="Layer" fill-rule="evenodd" class="s3" d="m139.2 123.7q-1 1.5-2 3c-0.1 20.6-8.4 41.6-36 45.7-24 3.6-37.8-8-45.5-23.4-2.1-1.4-4.3-3-6.4-4.8-9.9-8.7-14.3-19.8-9.9-24.9 1.8-2.1 5-2.8 8.6-2.3 0.8-20.5 15.9-38.4 37-41.8 0.9-0.2 2.1-0.2 3.1-0.3 1.3-5.1-1.2-8.2-5.8-8.9-2.3 4.8-6.4 9.4-10.3 12-6.1 3.9-12.2-0.5-9.4-7.7 2.5-6.4 9.9-8.9 16.6-8.9 0.8-2.9-0.2-5.7-4.1-7-0.2 0.3-0.5 0.6-0.7 1-2.4 3.6-13.8 11.4-16.2 4-2-5.4 7.4-10.6 11.6-10.3 0.9 0.2 1.9 0.3 2.8 0.5 0.5-1.5 0.7-3.1 0.2-4.7-0.7-1.8-3.3-3.2-5.9-3.5-2.3 3-5.8 5.6-9.4 4-0.8-0.4-1.3-1.7-1-2.5 1.3-3.3 4.5-4.9 7.9-5.4q0.3-0.8 0.5-1c1.7-3.8-0.3-5.6-4.1-6.4-2.8-0.7-1.6-4.9 1.2-4.3 5.9 1.4 9.5 6.1 7 11.7 0.8 0.1 1.7 0.3 2.5 0.6 5.7 2 6.4 7.7 4.9 12.8 4.8 2 8.6 5.4 7.2 11.2v0.1c6.8 1.2 10.1 6.6 8.9 12.8 17.1 0.2 32.7 10.4 39.8 25.8 4.1-2.8 7.9-3.6 10.5-2 4.9 3.1 3.1 14.4-3.6 24.9zm-69-69.8c-3.2 0-6.3 1-7.8 4.2 0.5-0.1 1-0.1 1.5-0.3 2-0.5 3.8-1.5 5.3-2.9q0.2-0.5 1-1zm6.7 12.6c-2.6 0.3-5.5 0.8-7.6 2.1-1.6 1-2.6 2.5-2.9 4.3-0.2 0.8-0.5 3.6 1.1 2.9 3.8-1.4 7.1-5.7 9.2-9 0-0.1 0-0.2 0.2-0.3zm0.2 0q-0.1 0-0.2 0 0.1 0 0.2 0zm28.1 71.8c-0.5-1.3-2-1.8-3.1-1.3-1.4 0.5-1.9 2-1.4 3.1 0.9 2.3 0.9 4.1-0.1 5.4-0.7 1-2 1.3-3.5 1.2-2.3-0.4-4.2-2.3-5.4-5.4-0.5-1.4-1.8-2-3.1-1.5-1.3 0.5-2 1.8-1.5 3.1 1.8 4.7 5.1 7.9 9.2 8.5 0.5 0.2 1 0.2 1.5 0.2 2.6 0 4.9-1.2 6.6-3.1 2.1-2.7 2.3-6.4 0.8-10.2z"/>
														</g>
													</g>
												</g>
											</g>
										</g>
									</g>
								</g>
							</g>
						</g>
					</g>
				</g>
			</g>
		</g>
	</g>
</svg>